<svg width="30" height="30" viewBox="0 0 30 30" fill="none" xmlns="http://www.w3.org/2000/svg">
<g id="Frame">
<path id="Vector" d="M8.4375 3.75V6.5625M21.5625 3.75V6.5625M3.75 23.4375V9.375C3.75 8.62908 4.04632 7.91371 4.57376 7.38626C5.10121 6.85882 5.81658 6.5625 6.5625 6.5625H23.4375C24.1834 6.5625 24.8988 6.85882 25.4262 7.38626C25.9537 7.91371 26.25 8.62908 26.25 9.375V23.4375M3.75 23.4375C3.75 24.1834 4.04632 24.8988 4.57376 25.4262C5.10121 25.9537 5.81658 26.25 6.5625 26.25H23.4375C24.1834 26.25 24.8988 25.9537 25.4262 25.4262C25.9537 24.8988 26.25 24.1834 26.25 23.4375M3.75 23.4375V14.0625C3.75 13.3166 4.04632 12.6012 4.57376 12.0738C5.10121 11.5463 5.81658 11.25 6.5625 11.25H23.4375C24.1834 11.25 24.8988 11.5463 25.4262 12.0738C25.9537 12.6012 26.25 13.3166 26.25 14.0625V23.4375" stroke="black" stroke-width="1.5" stroke-linecap="round" stroke-linejoin="round"/>
</g>
</svg>
